# xmcd CD database file
#
# Track frame offsets:
#	150
#	31557
#	70190
#	100421
#	141629
#	171342
#	202945
#	234500
#	240145
#	274023
#
# Disc length: 3787 seconds
#
# Revision: 0
# Processed by: cddbd v1.5.2PL0 Copyright (c) Steve Scherf et al.
# Submitted via: CDex 1.70beta2
#
DISCID=820ec90a
DTITLE=Pierre de Bethmann - Go
DYEAR=2011
DGENRE=Jazz
TTITLE0=Instable
TTITLE1=On change
TTITLE2=Froissé défroissé
TTITLE3=Humain, jamais trop
TTITLE4=Go
TTITLE5=Attends
TTITLE6=Prodigue
TTITLE7=Friche
TTITLE8=Pardi
TTITLE9=Pro digues
EXTD=YEAR: 2011
EXTT0=
EXTT1=
EXTT2=
EXTT3=
EXTT4=
EXTT5=
EXTT6=
EXTT7=
EXTT8=
EXTT9=
PLAYORDER=
